<svg version="1.2" xmlns="http://www.w3.org/2000/svg" viewBox="0 0 200 200" width="200" height="200">
	<title>logo-svg</title>
	<style>
		.s0 { fill: #000000 } 
	</style>
	<path id="Layer" fill-rule="evenodd" class="s0" d="m117.7 8q-10.8 0-21.6 0 0 1.5 0 3-7.7 0-15.3 0 0 1.6 0 3.1-3.8 0-7.6 0 0 1.3 0 2.5-3.1 0-6.1 0 0 1.6 0 3.1-3.1 0-6.1 0 0 1.5 0 3-2.3 0-4.6 0 0 1.6 0 3.1-2.3 0-4.6 0 0 1.3 0 2.5-2.2 0-4.5 0 0 1.6 0 3.1-1.6 0-3.1 0 0 1.5 0 3-2.3 0-4.6 0 0 1.3 0 2.6-1.5 0-3 0 0 1.5 0 3-1.5 0-3.1 0 0 1.5 0 3.1-1.5 0-3 0 0 1.2 0 2.5-0.8 0-1.5 0 0 1.5 0 3.1-1.6 0-3.1 0 0 1.5 0 3-1.5 0-3 0 0 1.5 0 3.1-1.6 0-3.1 0 0 1.2 0 2.5-0.7 0-1.5 0 0 1.5 0 3.1-1.5 0-3.1 0 0 1.5 0 3-0.7 0-1.5 0 0 1.3 0 2.5-0.7 0-1.5 0 0 1.6 0 3.1-1.5 0-3.1 0 0 1.5 0 3-0.7 0-1.5 0 0 1.3 0 2.6-0.7 0-1.5 0 0 1.5 0 3-1.5 0-3.1 0 0 1.6 0 3.1-0.7 0-1.5 0 0 1.5 0 3-0.7 0-1.5 0 0 6 0 12 0.8 0 1.5 0 0 2.8 0 5.6 0.8 0 1.5 0 0 2.8 0 5.6 0.8 0 1.6 0 0 1.5 0 3 5.4 0 10.9 0 0-1.6 0-3.3-0.8 0-1.5 0 0-1.5 0-3-1.5 0-3.1 0 0-1.3 0-2.6-0.7 0-1.5 0 0-3 0-6.1-0.8 0-1.5 0 0-3.9 0-7.9 0.7 0 1.5 0 0-1.5 0-3 0.8 0 1.5 0 0-1.5 0-3.1 0.8 0 1.6 0 0-1.5 0-3 1.5 0 3 0 0-1.3 0-2.6 0.8 0 1.5 0 0-1.5 0-3 0.8 0 1.6 0 0-1.5 0-3.1 1.5 0 3 0 0-1.2 0-2.5 0.8 0 1.5 0 0-1.5 0-3 1.6 0 3.1 0 0-1.6 0-3.1 1.5 0 3 0 0-1.3 0-2.5 0.8 0 1.5 0 0-1.6 0-3.1 1.6 0 3.1 0 0-1.5 0-3 1.5 0 3 0 0-1.6 0-3.1 1.6 0 3.1 0 0-1.3 0-2.5 1.5 0 3 0 0-1.6 0-3.1 1.6 0 3.1 0 0-1.5 0-3 1.5 0 3 0 0-1.3 0-2.6 2.3 0 4.6 0 0-1.5 0-3 2.3 0 4.6 0 0-1.5 0-3.1 2.3 0 4.6 0 0-1.2 0-2.5 2.3 0 4.5 0 0-1.5 0-3.1 3.1 0 6.1 0 0-1.5 0-3 3.9 0 7.7 0 0-1.5 0-3.1 4.5 0 9.1 0 0-1.2 0-2.5 15.1 0 30.3 0 0 1.3 0 2.5 20.5 0 41.1 0 0 1.6 0 3.1 3.1 0 6.1 0 0 1.5 0 3 1.6 0 3.1 0 0 1.6 0 3.1 1.5 0 3 0 0 1.3 0 2.5 0.8 0 1.5 0 0 1.6 0 3.1 0.8 0 1.6 0 0 2.8 0 5.6 0.7 0 1.5 0 0 7.2 0 14.5-0.8 0-1.5 0 0 1.2 0 2.5-2.3 0-4.6 0 0 11.7 0 23.4-0.8 0-1.5 0 0 1.6 0 3.3 3.2 0 6.3 0 0-1.5 0-3.1 2.3 0 4.6 0 0-1.5 0-3 0.8 0 1.5 0 0-9.9 0-19.8 0.8 0 1.6 0 0-11.9 0-23.7-0.8 0-1.6 0 0-3 0-6.1-0.7 0-1.5 0 0-1.2 0-2.5-1.5 0-3 0 0-1.5 0-3.1-0.8 0-1.6 0 0-1.5 0-3-1.5 0-3 0 0-1.5 0-3.1-3.1 0-6.1 0 0-1.2 0-2.5-3.8 0-7.6 0 0-1.5 0-3.1-8.6 0-17.1 0 0 1.6 0 3.1-5.2 0-10.4 0 0-1.5 0-3.1-7.6 0-15.2 0 0-1.5 0-3z"/>
	<path id="Layer" fill-rule="evenodd" class="s0" d="m160.4 37q-3.2 0-6.4 0 0 4.3 0 8.6-0.8 0-1.5 0 0 3.1 0 6.1-1.5 0-3.1 0 0 1.5 0 3.1-0.7 0-1.5 0 0 8.7 0 17.5 0.8 0 1.5 0 0 2.8 0 5.6 0.8 0 1.6 0 0 1.5 0 3 8.5 0 17 0 0-1.5 0-3 0.7 0 1.5 0 0-13.1 0-26.2-0.8 0-1.5 0 0-1.5 0-3-0.8 0-1.5 0 0-1.6 0-3.1-0.8 0-1.6 0 0-1.3 0-2.5-0.7 0-1.5 0 0-1.6 0-3.1-1.5 0-3 0 0-1.5 0-3z"/>
	<path id="Layer" fill-rule="evenodd" class="s0" d="m131.4 37q-4 0-7.9 0 0 1.5 0 3-0.8 0-1.5 0 0 1.5 0 3.1-0.8 0-1.5 0 0 1.2 0 2.5-0.8 0-1.6 0 0 1.5 0 3.1-0.7 0-1.5 0 0 1.5 0 3-0.8 0-1.5 0 0 7.5 0 15 0.7 0 1.5 0 0 2.8 0 5.6 0.8 0 1.5 0 0 2.8 0 5.6 1.6 0 3.1 0 0 1.5 0 3 12.3 0 24.6 0 0-11.8 0-23.6-0.7 0-1.5 0 0-1.3 0-2.5-0.8 0-1.5 0 0-1.6 0-3.1-1.5 0-3.1 0 0-1.5 0-3-0.7 0-1.5 0 0-1.6 0-3.1-1.5 0-3 0 0-1.3 0-2.5-1.6 0-3.1 0 0-1.6 0-3.1-0.8 0-1.5 0 0-1.5 0-3z"/>
	<path id="Layer" fill-rule="evenodd" class="s0" d="m100.9 45.6q-3.9 0-7.9 0 0 1.5 0 3.1-0.8 0-1.5 0 0 3 0 6.1-0.8 0-1.5 0 0 5.9 0 11.9 0.7 0 1.5 0 0 2.8 0 5.6 0.7 0 1.5 0 0 1.5 0 3 0.8 0 1.5 0 0 1.3 0 2.6 0.8 0 1.6 0 0 1.5 0 3 0.7 0 1.5 0 0 1.6 0 3.1 6.2 0 12.4 0 0-1.5 0-3.1 3.9 0 7.7 0 0-3.1 0-6.3-0.8 0-1.6 0 0-2.8 0-5.6-0.7 0-1.5 0 0-1.5 0-3.1-0.7 0-1.5 0 0-2.8 0-5.5-1.5 0-3.1 0 0-1.6 0-3.1-0.7 0-1.5 0 0-1.3 0-2.5-0.7 0-1.5 0 0-1.6 0-3.1-1.5 0-3.1 0 0-1.5 0-3-1.5 0-3 0 0-1.6 0-3.1z"/>
	<path id="Layer" fill-rule="evenodd" class="s0" d="m76.5 51.7q-3.2 0-6.4 0 0 1.5 0 3.1-1.5 0-3 0 0 1.2 0 2.5-0.8 0-1.5 0 0 9 0 18 0.7 0 1.5 0 0 1.3 0 2.6 0.8 0 1.5 0 0 1.5 0 3 0.8 0 1.5 0 0 1.6 0 3.1 0.8 0 1.6 0 0 1.5 0 3 0.7 0 1.5 0 0 1.3 0 2.6 6.2 0 12.4 0 0-1.3 0-2.6 2.3 0 4.6 0 0-1.5 0-3 0.8 0 1.5 0 0-1.5 0-3.1 0.8 0 1.6 0 0-1.6 0-3.3-0.8 0-1.6 0 0-1.5 0-3-0.7 0-1.5 0 0-2.8 0-5.6-0.7 0-1.5 0 0-1.5 0-3.1-0.8 0-1.5 0 0-1.2 0-2.5-1.6 0-3.1 0 0-1.5 0-3-0.7 0-1.5 0 0-1.6 0-3.1-1.5 0-3.1 0 0-1.3 0-2.5-1.5 0-3 0 0-1.6 0-3.1z"/>
	<path id="Layer" fill-rule="evenodd" class="s0" d="m56.7 65.9q-3.2 0-6.4 0 0 6 0 12 0.8 0 1.5 0 0 3 0 6.1 0.8 0 1.6 0 0 1.5 0 3 0.7 0 1.5 0 0 1.3 0 2.6 0.8 0 1.5 0 0 1.5 0 3 2.3 0 4.6 0 0 1.5 0 3.1 3.2 0 6.3 0 0-1.6 0-3.1 1.6 0 3.1 0 0-3.2 0-6.3-0.8 0-1.5 0 0-1.3 0-2.6-0.8 0-1.6 0 0-1.5 0-3-0.7 0-1.5 0 0-1.5 0-3.1-0.7 0-1.5 0 0-2.8 0-5.6-2.3 0-4.6 0 0-1.5 0-3-1.5 0-3 0 0-1.5 0-3.1z"/>
	<path id="Layer" fill-rule="evenodd" class="s0" d="m44.5 74.6q-3.2 0-6.4 0 0 7.5 0 15 0.8 0 1.5 0 0 1.5 0 3 0.8 0 1.6 0 0 1.5 0 3.1 0.7 0 1.5 0 0 1.2 0 2.5 1.5 0 3 0 0 1.5 0 3.1 3.2 0 6.4 0 0-1.6 0-3.1 1.5 0 3 0 0-2.9 0-5.8-0.7 0-1.5 0 0-1.6 0-3.1-0.7 0-1.5 0 0-1.5 0-3-0.8 0-1.5 0 0-2.8 0-5.6-0.8 0-1.6 0 0-1.5 0-3.1-2.2 0-4.5 0 0-1.5 0-3z"/>
	<path id="Layer" fill-rule="evenodd" class="s0" d="m32.3 83.7q-1.7 0-3.3 0 0 1.3 0 2.6-0.8 0-1.6 0 0 7.5 0 15 0.8 0 1.6 0 0 1.5 0 3 0.7 0 1.5 0 0 1.3 0 2.6 4.7 0 9.4 0 0-1.3 0-2.6 1.5 0 3 0 0-1.6 0-3.3-0.7 0-1.5 0 0-1.5 0-3-0.7 0-1.5 0 0-1.6 0-3.1-0.8 0-1.5 0 0-1.3 0-2.5-0.8 0-1.6 0 0-3.1 0-6.1-2.2 0-4.5 0 0-1.3 0-2.6z"/>
	<path id="Layer" fill-rule="evenodd" class="s0" d="m152.9 89.4q-22.6 0-45.3 0 0 1.3 0 2.6-7.9 0-15.9 0 0 1.4 0 2.7-2.6 0-5.3 0 0 1.1 0 2.2-6 0-11.9 0 0 1.3 0 2.6-2 0-4 0 0 1.4 0 2.7-4.6 0-9.3 0 0 1.1 0 2.2-2 0-4 0 0 1.3 0 2.7-3.3 0-6.6 0 0 1.3 0 2.6-1.3 0-2.6 0 0 1.3 0 2.7-0.7 0-1.4 0 0 1.4 0 2.8 5.3 0 10.6 0 0 1.1 0 2.2 29.3 0 58.6 0 0-1.1 0-2.2 8.6 0 17.2 0 0-1.3 0-2.6 7.3 0 14.6 0 0-1.3 0-2.7 5.3 0 10.6 0 0-1.3 0-2.6 0.7 0 1.4 0 0-5.2 0-10.4-0.7 0-1.4 0 0-1.1 0-2.2-1.3 0-2.6 0 0-1.3 0-2.7-1.3 0-2.7 0 0-1.3 0-2.6z"/>
	<path id="Layer" fill-rule="evenodd" class="s0" d="m26.2 98q-2.4 0-4.9 0 0 1.5 0 3-0.7 0-1.5 0 0 1.3 0 2.6-0.7 0-1.5 0 0 4.7 0 9.4 4.7 0 9.4 0 0-1.6 0-3.1 0.8 0 1.5 0 0-1.6 0-3.3-0.7 0-1.5 0 0-1.5 0-3-0.8 0-1.5 0 0-2.8 0-5.6z"/>
	<path id="Layer" fill-rule="evenodd" class="s0" d="m180.2 115.2q-4 0-7.9 0 0 7.5 0 15 0.8 0 1.5 0 0 5.9 0 11.7 0.8 0 1.5 0 0 1.6 0 3.1 0.8 0 1.6 0 0 1.2 0 2.5 1.5 0 3 0 0 3.1 0 6.1 2.4 0 4.9 0 0-14.9 0-29.7-0.8 0-1.6 0 0-2.8 0-5.6-1.5 0-3 0 0-1.5 0-3.1z"/>
	<path id="Layer" fill-rule="evenodd" class="s0" d="m166.5 115.2q-4.7 0-9.4 0 0 1.6 0 3.1-1.6 0-3.1 0 0 4.4 0 8.9 0.8 0 1.5 0 0 7.4 0 14.7 0.8 0 1.6 0 0 1.6 0 3.1 0.7 0 1.5 0 0 2.8 0 5.6 0.7 0 1.5 0 0 1.5 0 3 0.8 0 1.5 0 0 1.3 0 2.6 4.7 0 9.4 0 0-1.3 0-2.6 0.8 0 1.6 0 0-1.5 0-3 0.7 0 1.5 0 0-3.2 0-6.4-0.8 0-1.5 0 0-5.8 0-11.7-0.8 0-1.6 0 0-5.6 0-11.2-0.7 0-1.5 0 0-1.5 0-3-1.5 0-3 0 0-1.5 0-3.1z"/>
	<path id="Layer" fill-rule="evenodd" class="s0" d="m187.8 118.3q-1.7 0-3.3 0 0 1.6 0 3.3 0.8 0 1.5 0 0 10.2 0 20.3 0.8 0 1.5 0 0 1.6 0 3.1 1.6 0 3.1 0 0 12.8 0 25.6-0.8 0-1.5 0 0 1.3 0 2.6-2.3 0-4.6 0 0 1.5 0 3-6.1 0-12.2 0 0 1.6 0 3.1-9.9 0-19.8 0 0 1.3 0 2.5-35.7 0-71.4 0 0-1.2 0-2.5-9.2 0-18.3 0 0-1.5 0-3.1-6.1 0-12.2 0 0-1.5 0-3-4.6 0-9.2 0 0-1.3 0-2.6-3.8 0-7.6 0 0-1.5 0-3-3.1 0-6.1 0 0-1.5 0-3.1-2.3 0-4.6 0 0-1.5 0-3-2.3 0-4.5 0 0-1.3 0-2.5-0.8 0-1.6 0 0-1.6 0-3.1-1.5 0-3 0 0-1.5 0-3-0.8 0-1.5 0 0-2.8 0-5.6-0.8 0-1.6 0 0-4.2 0-8.4 0.8 0 1.6 0 0-3.2 0-6.4-0.8 0-1.6 0 0-1.2 0-2.5-0.7 0-1.5 0 0-1.5 0-3.1-1.6 0-3.3 0 0 1.6 0 3.1-0.8 0-1.5 0 0 2.8 0 5.6-0.8 0-1.6 0 0 7.5 0 15 0.8 0 1.6 0 0 2.8 0 5.6 0.7 0 1.5 0 0 1.5 0 3 1.5 0 3 0 0 1.5 0 3.1 0.8 0 1.6 0 0 1.2 0 2.5 1.5 0 3 0 0 1.5 0 3 1.5 0 3.1 0 0 1.6 0 3.1 2.3 0 4.5 0 0 1.5 0 3 3.1 0 6.1 0 0 1.3 0 2.6 3.1 0 6.1 0 0 1.5 0 3 3.9 0 7.7 0 0 1.6 0 3.1 5.3 0 10.6 0 0 1.3 0 2.5 6.9 0 13.8 0 0 1.6 0 3.1 9.9 0 19.8 0 0 1.5 0 3 31.4 0 62.8 0 0-1.5 0-3 10.6 0 21.3 0 0-1.5 0-3.1 7.6 0 15.3 0 0-1.2 0-2.5 3 0 6.1 0 0-1.5 0-3.1 1.5 0 3 0 0-1.5 0-3 1.5 0 3.1 0 0-1.3 0-2.6 0.7 0 1.5 0 0-5.8 0-11.6 0.7 0 1.5 0 0-6 0-12-0.8 0-1.5 0 0-3 0-6.1-0.8 0-1.5 0 0-1.3 0-2.5-0.8 0-1.6 0 0-1.6 0-3.1-1.5 0-3 0 0-1.5 0-3-0.8 0-1.5 0 0-4.3 0-8.7-0.8 0-1.6 0 0-2.8 0-5.6-0.7 0-1.5 0 0-1.5 0-3z"/>
	<path id="Layer" fill-rule="evenodd" class="s0" d="m149.7 118.3q-6.2 0-12.5 0 0 1.5 0 3-1.5 0-3 0 0 10.3 0 20.6 0.7 0 1.5 0 0 4.3 0 8.7 0.8 0 1.5 0 0 1.5 0 3 0.8 0 1.6 0 0 1.3 0 2.6 2.2 0 4.5 0 0 1.5 0 3 2.4 0 4.9 0 0-1.5 0-3 1.5 0 3 0 0-1.3 0-2.6 0.8 0 1.5 0 0-10.1 0-20.3 0.8 0 1.6 0 0-1.7 0-3.3-0.8 0-1.6 0 0-4.3 0-8.7-1.5 0-3 0 0-1.5 0-3z"/>
	<path id="Layer" fill-rule="evenodd" class="s0" d="m132.9 121.3q-9.3 0-18.5 0 0 7.2 0 14.3-0.8 0-1.6 0 0 5.9 0 11.9 0.8 0 1.6 0 0 3.1 0 6.1 0.7 0 1.5 0 0 1.3 0 2.6 6.2 0 12.4 0 0-1.3 0-2.6 1.6 0 3.1 0 0-3 0-6.1 0.7 0 1.5 0 0-13.1 0-26.2z"/>
	<path id="Layer" fill-rule="evenodd" class="s0" d="m110 121.3q-7.7 0-15.5 0 0 1.3 0 2.6-1.5 0-3 0 0 1.5 0 3-0.8 0-1.5 0 0 1.6 0 3.1-0.8 0-1.6 0 0 2.8 0 5.6-0.7 0-1.5 0 0 9 0 18 0.8 0 1.5 0 0 1.3 0 2.6 7 0 14 0 0-1.3 0-2.6 0.8 0 1.5 0 0-1.5 0-3 1.6 0 3.1 0 0-1.6 0-3.1 0.8 0 1.5 0 0-1.3 0-2.5 1.5 0 3.1 0 0-5.9 0-11.7 0.7 0 1.5 0 0-4.7 0-9.4-1.5 0-3.1 0 0-1.3 0-2.6z"/>
	<path id="Layer" fill-rule="evenodd" class="s0" d="m67.3 121.3q-5.4 0-10.9 0 0 1.3 0 2.6-0.7 0-1.5 0 0 4.3 0 8.6-0.8 0-1.5 0 0 1.5 0 3.1-0.8 0-1.6 0 0 5.9 0 11.9 0.8 0 1.6 0 0 1.5 0 3.1 2.4 0 4.8 0 0-1.6 0-3.1 1.5 0 3 0 0-1.3 0-2.5 0.8 0 1.6 0 0-1.5 0-3.1 1.5 0 3 0 0-3 0-6.1 0.8 0 1.5 0 0-7.2 0-14.5z"/>
	<path id="Layer" fill-rule="evenodd" class="s0" d="m53.6 121.3q-7.7 0-15.5 0 0 1.3 0 2.6-0.7 0-1.5 0 0 1.5 0 3-0.8 0-1.5 0 0 1.6 0 3.1-0.8 0-1.6 0 0 6 0 11.9 0.8 0 1.6 0 0 1.6 0 3.1 3.9 0 7.8 0 0-1.5 0-3.1 0.8 0 1.6 0 0-1.5 0-3 2.3 0 4.5 0 0-1.5 0-3.1 0.8 0 1.6 0 0-1.2 0-2.5 0.7 0 1.5 0 0-1.5 0-3.1 0.8 0 1.5 0 0-4.4 0-8.9z"/>
	<path id="Layer" fill-rule="evenodd" class="s0" d="m35.3 121.3q-6.2 0-12.4 0 0 2.8 0 5.6-0.8 0-1.6 0 0 4.5 0 8.9 3.2 0 6.4 0 0-1.2 0-2.5 2.3 0 4.6 0 0-3.1 0-6.1 0.7 0 1.5 0 0-1.3 0-2.6 0.8 0 1.5 0 0-1.6 0-3.3z"/>
	<path id="Layer" fill-rule="evenodd" class="s0" d="m87.2 123.9q-7.8 0-15.5 0 0 1.5 0 3-0.8 0-1.6 0 0 2.8 0 5.6-0.7 0-1.5 0 0 3.1 0 6.1-0.7 0-1.5 0 0 7.5 0 15 5.5 0 10.9 0 0-1.5 0-3 1.5 0 3.1 0 0-1.6 0-3.1 0.7 0 1.5 0 0-2.8 0-5.6 0.8 0 1.5 0 0-1.5 0-3 0.8 0 1.5 0 0-2.8 0-5.6 0.8 0 1.6 0 0-4.7 0-9.4z"/>
</svg>